HIERARCHY
ROOT Hips
{
	OFFSET -0.001795 -0.223333 0.028219
	CHANNELS 6 Xposition Yposition Zposition Zrotation Yrotation Xrotation 
	JOINT LeftUpLeg
	{
		OFFSET 0.069520 -0.091406 -0.006815
		CHANNELS 3 Zrotation Yrotation Xrotation
		JOINT LeftLeg
		{
			OFFSET 0.034277 -0.375199 -0.004496
			CHANNELS 3 Zrotation Yrotation Xrotation
			JOINT LeftFoot
			{
				OFFSET -0.013596 -0.397961 -0.043693
				CHANNELS 3 Zrotation Yrotation Xrotation
				JOINT LeftToe
				{
					OFFSET 0.026358 -0.055791 0.119288
					CHANNELS 3 Zrotation Yrotation Xrotation
					End Site
					{
						OFFSET 0.000000 0.000000 0.000000
					}
				}
			}
		}
	}
	JOINT RightUpLeg
	{
		OFFSET -0.067670 -0.090522 -0.004320
		CHANNELS 3 Zrotation Yrotation Xrotation
		JOINT RightLeg
		{
			OFFSET -0.038290 -0.382569 -0.008850
			CHANNELS 3 Zrotation Yrotation Xrotation
			JOINT RightFoot
			{
				OFFSET 0.015774 -0.398415 -0.042312
				CHANNELS 3 Zrotation Yrotation Xrotation
				JOINT RightToe
				{
					OFFSET -0.025372 -0.048144 0.123348
					CHANNELS 3 Zrotation Yrotation Xrotation
					End Site
					{
						OFFSET 0.000000 0.000000 0.000000
					}
				}
			}
		}
	}
	JOINT Spine
	{
		OFFSET -0.002533 0.108963 -0.026696
		CHANNELS 3 Zrotation Yrotation Xrotation
		JOINT Spine1
		{
			OFFSET 0.005487 0.135180 0.001092
			CHANNELS 3 Zrotation Yrotation Xrotation
			JOINT Spine2
			{
				OFFSET 0.001457 0.052922 0.025425
				CHANNELS 3 Zrotation Yrotation Xrotation
				JOINT Neck
				{
					OFFSET -0.002778 0.213870 -0.042857
					CHANNELS 3 Zrotation Yrotation Xrotation
					JOINT Head
					{
						OFFSET 0.005152 0.064970 0.051349
						CHANNELS 3 Zrotation Yrotation Xrotation
						End Site
						{
							OFFSET 0.000000 0.000000 0.000000
						}
					}
				}
				JOINT LeftShoulder
				{
					OFFSET 0.078845 0.121749 -0.034090
					CHANNELS 3 Zrotation Yrotation Xrotation
					JOINT LeftArm
					{
						OFFSET 0.090977 0.030469 -0.008868
						CHANNELS 3 Zrotation Yrotation Xrotation
						JOINT LeftForeArm
						{
							OFFSET 0.259612 -0.012772 -0.027456
							CHANNELS 3 Zrotation Yrotation Xrotation
							JOINT LeftHand
							{
								OFFSET 0.249234 0.008986 -0.001171
								CHANNELS 3 Zrotation Yrotation Xrotation
								End Site
								{
									OFFSET 0.000000 0.000000 0.000000
								}
							}
						}
					}
				}
				JOINT RightShoulder
				{
					OFFSET -0.081759 0.118833 -0.038615
					CHANNELS 3 Zrotation Yrotation Xrotation
					JOINT RightArm
					{
						OFFSET -0.096012 0.032551 -0.009143
						CHANNELS 3 Zrotation Yrotation Xrotation
						JOINT RightForeArm
						{
							OFFSET -0.253742 -0.013329 -0.021401
							CHANNELS 3 Zrotation Yrotation Xrotation
							JOINT RightHand
							{
								OFFSET -0.255298 0.007772 -0.005559
								CHANNELS 3 Zrotation Yrotation Xrotation
								End Site
								{
									OFFSET 0.000000 0.000000 0.000000
								}
							}
						}
					}
				}
			}
		}
	}
}
MOTION
Frames: 9
Frame Time: 0.050000
0.007142 0.951017 -0.020130 -7.925871 1.945738 10.330357 11.514873 -0.438428 -6.632843 4.226430 0.151760 -8.317033 1.770391 8.390165 15.017391 0.000000 0.000000 0.000000 1.201505 1.467728 -13.772519 -1.562332 0.380129 4.146194 2.341108 -1.205273 14.657545 0.000000 0.000000 0.000000 -5.298961 0.235901 -0.093861 -1.460263 0.655426 0.809500 3.697333 -1.662847 -1.196450 -0.202014 0.813079 -10.552007 0.000000 0.000000 0.000000 -6.221573 -21.875226 8.671229 -13.149402 -40.465640 1.493223 28.327914 -42.507809 -9.051491 0.000000 0.000000 0.000000 5.612651 30.111092 11.851894 1.135419 42.740652 -2.156637 -17.957763 54.441872 -7.058091 0.000000 0.000000 0.000000 
0.007558 0.951333 -0.020758 -7.959480 1.870283 10.379451 11.480125 -0.434959 -6.858444 4.294537 0.130325 -8.041408 1.811542 8.446864 15.029922 0.000000 0.000000 0.000000 1.494224 1.485275 -13.735566 -1.832485 0.410252 3.998779 2.087388 -1.660916 14.570579 0.000000 0.000000 0.000000 -5.534467 0.248113 0.086108 -1.480463 0.667672 0.687320 3.762958 -1.561944 -0.965755 -0.277370 0.884224 -10.921373 0.000000 0.000000 0.000000 -5.815530 -21.865424 8.605039 -12.399831 -40.266394 1.259159 29.047553 -41.719216 -9.149231 0.000000 0.000000 0.000000 5.493425 30.467742 11.998391 0.160194 43.208153 -2.508187 -20.116623 52.781576 -7.830281 0.000000 0.000000 0.000000 
0.007924 0.951775 -0.021362 -8.002775 1.628718 10.258652 11.527324 -0.425203 -6.594318 4.205008 0.144116 -8.208919 1.890212 8.574703 15.197631 0.000000 0.000000 0.000000 1.627815 1.481658 -13.596535 -1.896439 0.413416 3.891504 2.039360 -1.826610 14.660821 0.000000 0.000000 0.000000 -5.755229 0.258837 0.423064 -1.604190 0.730044 0.530524 3.988243 -1.195244 -0.796207 -0.415874 1.001037 -11.248369 0.000000 0.000000 0.000000 -5.437157 -21.784404 8.493030 -11.869295 -40.064600 1.086052 29.631235 -41.430890 -9.326427 0.000000 0.000000 0.000000 5.346866 30.824624 12.157398 -1.107504 44.286954 -3.004026 -21.446423 50.383809 -7.988881 0.000000 0.000000 0.000000 
0.008189 0.951983 -0.022097 -7.931540 1.534183 10.216470 11.497826 -0.421229 -6.604280 4.066504 0.144027 -8.145630 1.916833 8.613892 15.243605 0.000000 0.000000 0.000000 1.706108 1.466007 -13.404563 -2.049272 0.419313 3.622846 1.893420 -2.079430 14.567821 0.000000 0.000000 0.000000 -5.998160 0.271364 0.607740 -1.696518 0.772031 0.647759 4.026946 -0.720219 -0.786992 -0.347118 1.019528 -11.822063 0.000000 0.000000 0.000000 -4.824138 -21.755982 8.344044 -11.264653 -40.254979 0.925570 30.122260 -40.910317 -9.430567 0.000000 0.000000 0.000000 4.937382 31.263808 12.332744 -2.070795 45.605462 -3.423401 -22.420447 47.512720 -7.820549 0.000000 0.000000 0.000000 
0.008393 0.952182 -0.022966 -7.920916 1.552945 10.076173 11.611238 -0.414183 -6.811294 3.816064 0.117336 -7.629686 1.920290 8.593636 15.109719 0.000000 0.000000 0.000000 1.673071 1.451166 -13.288742 -1.954163 0.412647 3.732216 1.795563 -2.172845 14.341852 0.000000 0.000000 0.000000 -6.249737 0.282584 0.783955 -1.866245 0.857827 0.236152 4.014054 -0.186228 -0.466586 -0.195089 0.977850 -12.051027 0.000000 0.000000 0.000000 -4.191342 -21.765955 8.198653 -11.033116 -40.644769 0.854953 31.067844 -40.811177 -9.833682 0.000000 0.000000 0.000000 4.333373 32.046039 12.626547 -3.208454 46.880859 -3.925866 -23.004303 44.240011 -7.375273 0.000000 0.000000 0.000000 
0.008549 0.952317 -0.023909 -7.986045 1.961504 9.932342 11.689669 -0.420729 -7.087773 3.841332 0.089883 -7.218649 1.730567 8.325138 14.954401 0.000000 0.000000 0.000000 1.796447 1.433717 -13.076126 -1.926832 0.405172 3.659571 1.526702 -2.582963 14.286042 0.000000 0.000000 0.000000 -6.239927 0.279936 0.987868 -2.042955 0.937446 0.325096 3.916157 0.374497 -0.564213 -0.260625 1.100339 -12.437720 0.000000 0.000000 0.000000 -3.656303 -21.926703 8.106930 -10.598712 -41.192585 0.741042 31.945245 -40.498576 -10.177820 0.000000 0.000000 0.000000 3.581955 32.852927 12.918492 -4.291729 48.179853 -4.402403 -23.592501 40.869143 -6.879462 0.000000 0.000000 0.000000 
0.008741 0.952399 -0.024795 -7.931459 2.549916 9.891065 11.769668 -0.434196 -7.494279 3.650266 0.076855 -6.873196 1.448779 7.937636 14.809824 0.000000 0.000000 0.000000 1.849031 1.442885 -13.150736 -1.883015 0.412431 3.901360 0.994104 -3.446844 14.204165 0.000000 0.000000 0.000000 -6.394194 0.284783 1.057316 -2.083963 0.960886 -0.139833 3.711058 1.022233 -0.121608 -0.323788 1.250629 -12.958736 0.000000 0.000000 0.000000 -2.947798 -22.227718 8.035511 -10.306757 -42.180308 0.638726 32.564782 -39.422651 -10.240109 0.000000 0.000000 0.000000 2.552432 33.633093 13.128341 -5.460140 49.604855 -4.941093 -24.078263 37.475988 -6.333683 0.000000 0.000000 0.000000 
0.008994 0.952630 -0.025532 -7.922619 3.465164 9.874888 11.795576 -0.461486 -7.843639 3.675304 0.076750 -6.852291 0.980134 7.337922 14.788489 0.000000 0.000000 0.000000 1.884030 1.419263 -12.962078 -1.754178 0.382613 3.677681 0.445521 -4.343939 14.310607 0.000000 0.000000 0.000000 -6.269127 0.274602 1.103323 -2.260190 1.040418 -0.244242 3.633509 1.675362 -0.015073 -0.406708 1.417168 -13.355254 0.000000 0.000000 0.000000 -2.591295 -22.621067 8.033514 -9.636256 -43.015068 0.408011 33.086797 -38.586942 -10.329693 0.000000 0.000000 0.000000 1.985541 34.661104 13.565868 -6.817274 50.485179 -5.489401 -24.276653 33.843862 -5.645777 0.000000 0.000000 0.000000 
0.009428 0.952816 -0.026069 -7.719290 4.188728 9.850329 11.637548 -0.487180 -8.066510 3.584826 0.084709 -6.889904 0.585444 6.835647 14.801471 0.000000 0.000000 0.000000 1.732138 1.380963 -12.741352 -1.669588 0.359866 3.462546 -0.086537 -5.199730 14.291470 0.000000 0.000000 0.000000 -6.204575 0.267932 1.097273 -2.450090 1.126364 -0.330137 3.472640 2.434949 -0.050292 -0.351755 1.476226 -13.374139 0.000000 0.000000 0.000000 -2.259390 -22.972226 8.017050 -9.413524 -43.476897 0.289989 33.127973 -37.973268 -10.309323 0.000000 0.000000 0.000000 1.254907 35.593905 13.903249 -7.870328 51.511461 -5.935567 -24.106337 30.734386 -4.980372 0.000000 0.000000 0.000000 
